<svg width="24" height="21" viewBox="0 0 24 21" fill="none" xmlns="http://www.w3.org/2000/svg">
<path d="M12.9805 0.0996094C13.4595 0.0996844 13.8231 0.273106 14.333 0.720703L14.5615 0.929688L23.333 9.25293C23.7452 9.6514 23.9004 10.099 23.9004 10.5C23.9004 10.8901 23.7449 11.3488 23.333 11.7471L14.5615 20.127C13.9856 20.6802 13.5325 20.9004 12.958 20.9004C12.1511 20.9004 11.5625 20.3037 11.5625 19.4775V15.3398H11.1855C9.15539 15.3399 7.50916 15.6424 6.14941 16.3662C4.78797 17.0909 3.72327 18.2333 2.84668 19.8936C2.63737 20.2925 2.40499 20.5297 2.16211 20.6689C1.91906 20.8083 1.65557 20.8545 1.37305 20.8545C1.02181 20.8544 0.708061 20.6878 0.478516 20.3477C0.246947 20.0044 0.0996269 19.482 0.0996094 18.7783C0.0996094 14.6968 0.983498 11.4267 2.80469 9.17871C4.62298 6.93449 7.38818 5.69443 11.1855 5.69434H11.5625V1.5791C11.5625 0.749032 12.1551 0.0996094 12.9805 0.0996094ZM13.667 2.74219C13.5939 2.74219 13.5248 2.76721 13.4746 2.81836C13.4246 2.86934 13.4004 2.93883 13.4004 3.01172V7.27441C13.4004 7.39254 13.3747 7.45374 13.3418 7.4873C13.3093 7.52045 13.2498 7.54688 13.1348 7.54688H11.7178C8.12702 7.54688 5.68449 8.75471 4.12012 10.6523C2.55896 12.5462 1.88296 15.1141 1.79395 17.8164V17.8193C1.79395 17.8709 1.80424 17.9238 1.83594 17.9658C1.87056 18.0117 1.92143 18.0322 1.97168 18.0322C2.07979 18.0321 2.13759 17.9448 2.17188 17.875L2.30078 17.6172C3.67891 15.0046 6.82084 13.4756 11.7178 13.4756H13.1348C13.2498 13.4756 13.3093 13.502 13.3418 13.5352C13.3747 13.5687 13.4004 13.6299 13.4004 13.748V17.9102C13.4005 17.9859 13.4237 18.057 13.4736 18.1104C13.5243 18.1644 13.5937 18.1904 13.667 18.1904C13.7578 18.1904 13.8473 18.1384 13.9131 18.0723L21.4893 10.7861L21.4912 10.7842C21.5391 10.7354 21.5745 10.6898 21.5977 10.6426C21.622 10.5929 21.6299 10.5465 21.6299 10.5C21.6299 10.3931 21.5744 10.3119 21.4961 10.2207L21.4893 10.2139L13.9248 2.86035C13.8569 2.79193 13.7669 2.74224 13.667 2.74219Z" fill="white" stroke="#2990FF" stroke-width="0.2"/>
</svg>
