<svg width="20" height="20" viewBox="0 0 20 20" fill="none" xmlns="http://www.w3.org/2000/svg">
<path d="M16.1881 7.28467H8.90348C8.00943 7.28467 7.28467 8.00943 7.28467 8.90348V16.1881C7.28467 17.0822 8.00943 17.8069 8.90348 17.8069H16.1881C17.0822 17.8069 17.8069 17.0822 17.8069 16.1881V8.90348C17.8069 8.00943 17.0822 7.28467 16.1881 7.28467Z" stroke="#2990FF" stroke-width="1.4" stroke-linecap="round" stroke-linejoin="round"/>
<path d="M4.04699 12.1412H3.23758C2.80825 12.1412 2.3965 11.9706 2.09291 11.667C1.78933 11.3634 1.61877 10.9517 1.61877 10.5224V3.23771C1.61877 2.80837 1.78933 2.39662 2.09291 2.09303C2.3965 1.78945 2.80825 1.6189 3.23758 1.6189H10.5222C10.9516 1.6189 11.3633 1.78945 11.6669 2.09303C11.9705 2.39662 12.141 2.80837 12.141 3.23771V4.04711" stroke="#2990FF" stroke-width="1.4" stroke-linecap="round" stroke-linejoin="round"/>
</svg>
